<?xml version="1.0" encoding="UTF-8"?>
<!DOCTYPE svg PUBLIC "-//W3C//DTD SVG 1.1//EN" "http://www.w3.org/Graphics/SVG/1.1/DTD/svg11.dtd">
<svg xmlns="http://www.w3.org/2000/svg" version="1.1" width="1080px" height="1080px" style="shape-rendering:geometricPrecision; text-rendering:geometricPrecision; image-rendering:optimizeQuality; fill-rule:evenodd; clip-rule:evenodd" xmlns:xlink="http://www.w3.org/1999/xlink">
<g><path style="opacity:1" fill="#eefced" d="M -0.5,-0.5 C 359.5,-0.5 719.5,-0.5 1079.5,-0.5C 1079.5,359.5 1079.5,719.5 1079.5,1079.5C 719.5,1079.5 359.5,1079.5 -0.5,1079.5C -0.5,719.5 -0.5,359.5 -0.5,-0.5 Z"/></g>
<g><path style="opacity:1" fill="#adc1b2" d="M 536.5,305.5 C 536.831,335.005 536.498,364.338 535.5,393.5C 530.295,381.247 521.629,372.414 509.5,367C 490.022,363.475 480.855,371.641 482,391.5C 487.879,406.471 492.546,421.804 496,437.5C 496.985,445.138 497.485,452.804 497.5,460.5C 496.349,465.043 495.515,469.71 495,474.5C 496.735,470.655 497.901,466.655 498.5,462.5C 498.969,438.7 494.803,415.7 486,393.5C 482.657,379.535 487.991,371.535 502,369.5C 511.238,371.743 518.571,376.743 524,384.5C 528.856,392.212 533.19,400.212 537,408.5C 537.833,449.837 537.667,491.171 536.5,532.5C 531.042,534.519 525.376,535.519 519.5,535.5C 515.5,535.5 511.5,535.5 507.5,535.5C 507.819,530.637 507.486,525.97 506.5,521.5C 501.5,521.5 496.5,521.5 491.5,521.5C 491.5,525.5 491.5,529.5 491.5,533.5C 483.038,531.624 475.205,528.291 468,523.5C 467.5,511.838 467.333,500.171 467.5,488.5C 462.5,488.5 457.5,488.5 452.5,488.5C 452.666,496.174 452.5,503.841 452,511.5C 449.666,508 446.832,505 443.5,502.5C 435.341,491.53 428.174,479.863 422,467.5C 423.102,472.727 425.102,477.727 428,482.5C 431.78,489.751 436.28,496.418 441.5,502.5C 444.447,506.95 447.947,510.95 452,514.5C 452.5,532.164 452.667,549.83 452.5,567.5C 440.84,566.743 430.007,569.409 420,575.5C 422.046,565.667 423.213,555.667 423.5,545.5C 423.324,535.963 421.99,526.629 419.5,517.5C 416.616,502.552 409.283,490.385 397.5,481C 395.086,479.115 392.419,478.448 389.5,479C 401.37,483.871 409.537,492.371 414,504.5C 415.215,510.04 416.715,515.373 418.5,520.5C 427.775,572.792 407.775,608.625 358.5,628C 343.683,634.09 328.35,637.757 312.5,639C 296.275,613.606 290.775,586.106 296,556.5C 298.808,545.886 303.474,536.219 310,527.5C 314.208,521.814 319.708,518.981 326.5,519C 337.189,528.953 349.856,533.453 364.5,532.5C 367.258,531.623 369.924,530.456 372.5,529C 373.696,528.346 373.696,527.846 372.5,527.5C 367.821,530.021 362.821,531.021 357.5,530.5C 351.808,529.769 346.475,527.936 341.5,525C 336.546,521.715 331.88,518.048 327.5,514C 324.106,513.248 320.773,513.415 317.5,514.5C 307.404,460.163 328.737,425.33 381.5,410C 399.636,405.327 416.636,407.827 432.5,417.5C 439.77,423.596 446.937,429.93 454,436.5C 454.667,435.833 454.667,435.167 454,434.5C 447.791,427.668 440.958,421.668 433.5,416.5C 427.622,411.725 420.955,408.225 413.5,406C 388.241,401.941 365.075,407.107 344,421.5C 337.749,395.984 344.916,375.151 365.5,359C 367.167,358.167 368.833,357.333 370.5,356.5C 379.846,363.343 390.179,368.176 401.5,371C 422.184,374.745 436.351,366.911 444,347.5C 446.372,345.297 448.539,342.963 450.5,340.5C 447.925,341.728 445.592,343.395 443.5,345.5C 439.276,355.891 431.943,363.057 421.5,367C 409.739,369.071 398.739,367.071 388.5,361C 383.825,358.664 379.492,355.831 375.5,352.5C 372.949,333.435 378.949,317.601 393.5,305C 407.686,295.956 423.019,293.289 439.5,297C 443.866,310.45 452.533,319.784 465.5,325C 476.446,325.76 487.279,324.927 498,322.5C 504.798,323.15 510.631,325.817 515.5,330.5C 517.847,333.861 519.681,337.528 521,341.5C 521.159,337.152 519.659,333.486 516.5,330.5C 511.009,323.426 503.676,320.092 494.5,320.5C 486.221,322.047 477.887,322.547 469.5,322C 456.582,317.69 448.582,308.857 445.5,295.5C 464.756,266.971 488.423,262.805 516.5,283C 524.456,289.457 531.123,296.957 536.5,305.5 Z"/></g>
<g><path style="opacity:1" fill="#adc1b2" d="M 561.5,332.5 C 565.212,327.96 569.878,324.793 575.5,323C 587.76,324.582 600.093,325.249 612.5,325C 626.206,320.293 635.206,310.959 639.5,297C 660.755,292.508 678.921,298.008 694,313.5C 701.711,325.011 705.044,337.678 704,351.5C 690.917,362.861 675.75,368.028 658.5,367C 648.06,362.995 640.56,355.828 636,345.5C 632.872,342.526 629.372,340.193 625.5,338.5C 627.812,340.636 630.312,342.636 633,344.5C 642.519,367.843 659.352,376.01 683.5,369C 692.391,365.888 700.724,361.721 708.5,356.5C 731.657,370.758 740.824,391.425 736,418.5C 735.692,419.308 735.192,419.975 734.5,420.5C 718.234,411.059 700.734,405.726 682,404.5C 668.404,403.921 656.238,407.755 645.5,416C 639.923,420.413 634.923,425.247 630.5,430.5C 624.977,434.842 620.477,439.842 617,445.5C 622.037,440.631 626.87,435.631 631.5,430.5C 641.351,421.07 652.684,413.903 665.5,409C 681.385,406.965 696.718,408.965 711.5,415C 720.73,419.447 729.73,424.113 738.5,429C 762.122,452.975 770.122,481.475 762.5,514.5C 758.869,513.588 755.203,513.421 751.5,514C 743.106,522.365 733.106,527.865 721.5,530.5C 717.102,530.706 712.768,530.373 708.5,529.5C 709.659,531.25 711.326,532.25 713.5,532.5C 719.245,532.789 724.912,532.289 730.5,531C 739.475,527.846 747.808,523.679 755.5,518.5C 760.938,519.945 765.438,522.945 769,527.5C 781.945,545.413 787.278,565.413 785,587.5C 782.372,605.72 776.372,622.72 767,638.5C 730.813,636.742 700.146,622.742 675,596.5C 671.904,591.972 669.071,587.305 666.5,582.5C 658.46,563.969 656.294,544.636 660,524.5C 662.165,507.835 669.332,493.835 681.5,482.5C 672.231,488.956 665.731,497.623 662,508.5C 654.509,529.952 653.676,551.619 659.5,573.5C 659.167,573.833 658.833,574.167 658.5,574.5C 648.651,568.44 637.985,566.106 626.5,567.5C 626.333,550.163 626.5,532.83 627,515.5C 631.082,511.924 634.582,507.924 637.5,503.5C 646.113,493.131 653.113,481.631 658.5,469C 658.333,468.5 658.167,468 658,467.5C 652.401,479.719 645.568,491.053 637.5,501.5C 634.272,504.306 631.272,507.306 628.5,510.5C 627.833,503.167 627.167,495.833 626.5,488.5C 621.5,488.5 616.5,488.5 611.5,488.5C 611.832,500.518 611.499,512.518 610.5,524.5C 605.62,527.107 600.62,529.44 595.5,531.5C 594.833,529.167 594.167,526.833 593.5,524.5C 585.367,520.709 576.867,518.376 568,517.5C 558.694,517.655 550.527,520.655 543.5,526.5C 542.501,487.337 542.168,448.004 542.5,408.5C 546.76,396.138 553.427,385.305 562.5,376C 571.362,368.122 580.529,367.622 590,374.5C 593.266,379.702 594.266,385.369 593,391.5C 588.866,404.371 585.199,417.371 582,430.5C 580.656,441.118 580.156,451.784 580.5,462.5C 580.861,466.915 582.194,470.915 584.5,474.5C 583.491,469.711 582.491,465.044 581.5,460.5C 581.815,437.526 586.649,415.526 596,394.5C 599.712,373.884 591.212,364.384 570.5,366C 557.927,371.739 548.927,380.906 543.5,393.5C 542.502,364.338 542.169,335.005 542.5,305.5C 553.308,287.933 568.641,276.433 588.5,271C 608.328,270.248 623.328,278.415 633.5,295.5C 629.481,312.528 618.814,321.528 601.5,322.5C 592.538,321.1 583.538,320.6 574.5,321C 568.712,323.293 564.379,327.127 561.5,332.5 Z"/></g>
<g><path style="opacity:1" fill="#cbdbce" d="M 536.5,305.5 C 537.664,335.664 537.831,365.997 537,396.5C 536.487,395.473 535.987,394.473 535.5,393.5C 536.498,364.338 536.831,335.005 536.5,305.5 Z"/></g>
<g><path style="opacity:1" fill="#cbdbce" d="M 542.5,305.5 C 542.169,335.005 542.502,364.338 543.5,393.5C 543.217,394.289 542.717,394.956 542,395.5C 541.169,365.331 541.336,335.331 542.5,305.5 Z"/></g>
<g><path style="opacity:1" fill="#dbebdc" d="M 515.5,330.5 C 515.833,330.5 516.167,330.5 516.5,330.5C 519.659,333.486 521.159,337.152 521,341.5C 519.681,337.528 517.847,333.861 515.5,330.5 Z"/></g>
<g><path style="opacity:1" fill="#daeadb" d="M 625.5,338.5 C 621.178,337.274 616.845,337.274 612.5,338.5C 614.462,336.983 616.795,336.316 619.5,336.5C 621.167,336.667 622.833,336.833 624.5,337C 625.056,337.383 625.389,337.883 625.5,338.5 Z"/></g>
<g><path style="opacity:1" fill="#dbebdc" d="M 457.5,337.5 C 460.97,336.131 464.303,336.631 467.5,339C 464.299,338.227 460.965,337.727 457.5,337.5 Z"/></g>
<g><path style="opacity:1" fill="#dbebdc" d="M 561.5,332.5 C 560.955,334.593 560.122,336.593 559,338.5C 558.458,335.918 559.292,333.918 561.5,332.5 Z"/></g>
<g><path style="opacity:1" fill="#deedde" d="M 450.5,340.5 C 451.918,338.292 453.918,337.458 456.5,338C 454.593,339.122 452.593,339.955 450.5,340.5 Z"/></g>
<g><path style="opacity:1" fill="#c4d6c7" d="M 612.5,338.5 C 611.207,340.296 609.707,341.963 608,343.5C 608.177,340.814 609.677,339.148 612.5,338.5 Z"/></g>
<g><path style="opacity:1" fill="#cbdbce" d="M 542.5,408.5 C 542.168,448.004 542.501,487.337 543.5,526.5C 543.44,527.043 543.107,527.376 542.5,527.5C 541.169,487.669 541.169,448.002 542.5,408.5 Z"/></g>
<g><path style="opacity:1" fill="#e3f2e3" d="M 433.5,416.5 C 440.958,421.668 447.791,427.668 454,434.5C 454.667,435.167 454.667,435.833 454,436.5C 446.937,429.93 439.77,423.596 432.5,417.5C 433.167,417.5 433.5,417.167 433.5,416.5 Z"/></g>
<g><path style="opacity:1" fill="#d6e6d7" d="M 630.5,430.5 C 630.833,430.5 631.167,430.5 631.5,430.5C 626.87,435.631 622.037,440.631 617,445.5C 620.477,439.842 624.977,434.842 630.5,430.5 Z"/></g>
<g><path style="opacity:1" fill="#ccddce" d="M 456.5,438.5 C 459.395,440.202 461.228,442.536 462,445.5C 459.546,443.559 457.713,441.225 456.5,438.5 Z"/></g>
<g><path style="opacity:1" fill="#edfced" d="M 456.5,456.5 C 460.182,456.335 463.848,456.501 467.5,457C 469.286,457.196 470.619,458.029 471.5,459.5C 470.42,461.996 469.086,464.33 467.5,466.5C 463.738,464.91 460.238,465.243 457,467.5C 456.175,469.701 456.675,471.534 458.5,473C 463.489,473.499 468.489,473.666 473.5,473.5C 473.5,476.5 473.5,479.5 473.5,482.5C 464.5,482.5 455.5,482.5 446.5,482.5C 447.135,476.156 447.968,469.822 449,463.5C 450.742,460.254 453.242,457.921 456.5,456.5 Z"/></g>
<g><path style="opacity:1" fill="#d9e9da" d="M 581.5,460.5 C 582.491,465.044 583.491,469.711 584.5,474.5C 582.194,470.915 580.861,466.915 580.5,462.5C 581.338,462.158 581.672,461.492 581.5,460.5 Z"/></g>
<g><path style="opacity:1" fill="#d5e5d7" d="M 497.5,460.5 C 497.328,461.492 497.662,462.158 498.5,462.5C 497.901,466.655 496.735,470.655 495,474.5C 495.515,469.71 496.349,465.043 497.5,460.5 Z"/></g>
<g><path style="opacity:1" fill="#daeadb" d="M 584.5,474.5 C 585.674,475.514 586.34,476.847 586.5,478.5C 584.896,477.713 584.229,476.38 584.5,474.5 Z"/></g>
<g><path style="opacity:1" fill="#cedfd0" d="M 372.5,478.5 C 377.564,478.698 377.397,479.365 372,480.5C 371.5,480.333 371,480.167 370.5,480C 371.416,479.722 372.082,479.222 372.5,478.5 Z"/></g>
<g><path style="opacity:1" fill="#d7e7d8" d="M 586.5,478.5 C 588.262,479.262 589.262,480.596 589.5,482.5C 587.738,481.738 586.738,480.404 586.5,478.5 Z"/></g>
<g><path style="opacity:1" fill="#d3e3d4" d="M 681.5,482.5 C 685.788,479.07 690.788,477.404 696.5,477.5C 701.444,477.537 706.111,478.703 710.5,481C 705.588,480.12 700.588,479.287 695.5,478.5C 690.644,479.23 685.978,480.564 681.5,482.5 Z"/></g>
<g><path style="opacity:1" fill="#c4d6c7" d="M 491.5,478.5 C 492.043,478.56 492.376,478.893 492.5,479.5C 491.469,480.7 490.635,482.034 490,483.5C 489.282,484.451 488.449,484.617 487.5,484C 488.965,482.226 490.298,480.392 491.5,478.5 Z"/></g>
<g><path style="opacity:1" fill="#e3f2e3" d="M 443.5,502.5 C 442.833,502.5 442.167,502.5 441.5,502.5C 436.28,496.418 431.78,489.751 428,482.5C 425.102,477.727 423.102,472.727 422,467.5C 428.174,479.863 435.341,491.53 443.5,502.5 Z"/></g>
<g><path style="opacity:1" fill="#d5e5d6" d="M 589.5,482.5 C 592.268,484.087 594.935,485.92 597.5,488C 593.955,487.649 591.289,485.815 589.5,482.5 Z"/></g>
<g><path style="opacity:1" fill="#c6d7c9" d="M 626.5,488.5 C 627.167,495.833 627.833,503.167 628.5,510.5C 628.44,511.043 628.107,511.376 627.5,511.5C 626.503,503.862 626.169,496.196 626.5,488.5 Z"/></g>
<g><path style="opacity:1" fill="#ecfaeb" d="M 553.5,490.5 C 562.158,489.327 565.992,492.994 565,501.5C 561.108,507.259 556.441,507.926 551,503.5C 548.458,498.438 549.292,494.105 553.5,490.5 Z"/></g>
<g><path style="opacity:1" fill="#ecfbec" d="M 574.5,490.5 C 584.002,489.493 587.502,493.493 585,502.5C 579.75,508.173 575.084,507.84 571,501.5C 569.663,496.872 570.83,493.205 574.5,490.5 Z"/></g>
<g><path style="opacity:1" fill="#e3f2e3" d="M 637.5,503.5 C 637.5,502.833 637.5,502.167 637.5,501.5C 645.568,491.053 652.401,479.719 658,467.5C 658.167,468 658.333,468.5 658.5,469C 653.113,481.631 646.113,493.131 637.5,503.5 Z"/></g>
<g><path style="opacity:1" fill="#e1f0e2" d="M 419.5,517.5 C 418.596,518.209 418.263,519.209 418.5,520.5C 416.715,515.373 415.215,510.04 414,504.5C 409.537,492.371 401.37,483.871 389.5,479C 392.419,478.448 395.086,479.115 397.5,481C 409.283,490.385 416.616,502.552 419.5,517.5 Z"/></g>
<g><path style="opacity:1" fill="#deeede" d="M 506.5,521.5 C 506.5,521.833 506.5,522.167 506.5,522.5C 501.833,522.5 497.167,522.5 492.5,522.5C 492.815,526.371 492.482,530.038 491.5,533.5C 491.5,529.5 491.5,525.5 491.5,521.5C 496.5,521.5 501.5,521.5 506.5,521.5 Z"/></g>
<g><path style="opacity:1" fill="#c1d4c5" d="M 506.5,521.5 C 507.486,525.97 507.819,530.637 507.5,535.5C 511.5,535.5 515.5,535.5 519.5,535.5C 515.366,536.485 511.032,536.818 506.5,536.5C 506.5,531.833 506.5,527.167 506.5,522.5C 506.5,522.167 506.5,521.833 506.5,521.5 Z"/></g>
<g><path style="opacity:1" fill="#e6f5e6" d="M 681.5,482.5 C 669.332,493.835 662.165,507.835 660,524.5C 656.294,544.636 658.46,563.969 666.5,582.5C 665.348,581.375 664.348,581.375 663.5,582.5C 653.168,573.673 641.168,569.339 627.5,569.5C 627.167,568.833 626.833,568.167 626.5,567.5C 637.985,566.106 648.651,568.44 658.5,574.5C 658.833,574.167 659.167,573.833 659.5,573.5C 653.676,551.619 654.509,529.952 662,508.5C 665.731,497.623 672.231,488.956 681.5,482.5 Z"/></g>
<g><path style="opacity:1" fill="#dbebdc" d="M 610.5,528.5 C 610.56,527.957 610.893,527.624 611.5,527.5C 612.827,544.329 612.827,560.995 611.5,577.5C 611.83,560.991 611.496,544.658 610.5,528.5 Z"/></g>
<g><path style="opacity:1" fill="#adc1b2" d="M 518.5,675.5 C 515.26,689.213 510.594,702.547 504.5,715.5C 504.846,716.696 505.346,716.696 506,715.5C 511.785,704.308 516.285,692.642 519.5,680.5C 523.18,664.745 522.014,649.412 516,634.5C 505.195,619.643 502.028,603.309 506.5,585.5C 516.833,585.5 527.167,585.5 537.5,585.5C 537.667,643.834 537.5,702.168 537,760.5C 516.22,778.143 492.72,790.977 466.5,799C 443.489,804.108 426.155,796.608 414.5,776.5C 426.491,766.676 437.324,755.676 447,743.5C 454.991,731.698 458.824,718.698 458.5,704.5C 458.047,700.307 456.881,696.307 455,692.5C 456.132,699.048 456.632,705.715 456.5,712.5C 454.479,725.542 448.979,736.876 440,746.5C 431.042,755.798 421.209,763.964 410.5,771C 375.517,766.922 352.684,748.089 342,714.5C 339.943,704.602 338.776,694.602 338.5,684.5C 347.655,681.878 356.989,680.212 366.5,679.5C 373.771,678.225 379.938,680.225 385,685.5C 384.74,682.883 383.24,681.05 380.5,680C 370.769,676.732 360.769,675.732 350.5,677C 330.667,683.182 318.834,676.015 315,655.5C 314.333,652.167 314.333,648.833 315,645.5C 342.588,641.196 367.755,631.029 390.5,615C 394.617,611.85 398.451,608.35 402,604.5C 407.889,596.943 413.389,589.11 418.5,581C 425.276,576.279 432.609,572.612 440.5,570C 444.486,569.501 448.486,569.334 452.5,569.5C 452.5,574.833 452.5,580.167 452.5,585.5C 457.5,585.5 462.5,585.5 467.5,585.5C 467.216,583.585 467.549,581.919 468.5,580.5C 467.361,562.877 467.194,545.21 468,527.5C 475.102,532.637 482.935,535.97 491.5,537.5C 491.667,555.503 491.5,573.503 491,591.5C 488.978,598.615 484.145,601.948 476.5,601.5C 477.383,606.132 478.05,610.798 478.5,615.5C 486.884,615.391 494.051,612.391 500,606.5C 503.697,619.228 509.03,631.228 516,642.5C 519.407,653.289 520.24,664.289 518.5,675.5 Z"/></g>
<g><path style="opacity:1" fill="#adc1b2" d="M 610.5,528.5 C 611.496,544.658 611.83,560.991 611.5,577.5C 611.031,579.995 611.031,582.661 611.5,585.5C 616.5,585.5 621.5,585.5 626.5,585.5C 626.179,579.974 626.512,574.64 627.5,569.5C 641.168,569.339 653.168,573.673 663.5,582.5C 671.428,600.598 684.095,614.431 701.5,624C 720.838,635.057 741.505,642.224 763.5,645.5C 765.816,662.21 759.316,673.877 744,680.5C 729.634,676.026 715.134,675.526 700.5,679C 698.246,680.377 696.08,681.877 694,683.5C 693.333,684.167 693.333,684.833 694,685.5C 699.178,680.608 705.344,678.608 712.5,679.5C 715.5,679.667 718.5,679.833 721.5,680C 727.88,681.407 734.213,682.907 740.5,684.5C 741.289,707.297 734.789,727.63 721,745.5C 706.431,760.868 688.598,769.368 667.5,771C 647.993,758.831 633.493,742.331 624,721.5C 623.206,718.529 622.539,715.529 622,712.5C 621.514,706.425 622.014,700.425 623.5,694.5C 622.073,696.148 621.24,698.148 621,700.5C 619.779,710.082 620.779,719.415 624,728.5C 627.913,736.667 632.58,744.333 638,751.5C 646.407,760.41 655.24,768.743 664.5,776.5C 657.588,789.89 646.588,797.723 631.5,800C 612.902,800.249 595.569,795.582 579.5,786C 566.452,778.282 553.952,769.782 542,760.5C 541.5,702.168 541.333,643.834 541.5,585.5C 552.748,585.179 563.915,585.513 575,586.5C 577.543,599.699 575.877,612.365 570,624.5C 558.026,642.464 555.192,661.798 561.5,682.5C 565.411,697.981 571.744,712.314 580.5,725.5C 572.699,710.744 566.699,695.411 562.5,679.5C 561.508,669.852 561.342,660.186 562,650.5C 562.798,647.107 563.798,643.774 565,640.5C 569.861,632.112 574.194,623.446 578,614.5C 580.494,604.923 580.994,595.256 579.5,585.5C 584.5,585.5 589.5,585.5 594.5,585.5C 594.333,569.163 594.5,552.83 595,536.5C 600.397,534.218 605.564,531.552 610.5,528.5 Z"/></g>
<g><path style="opacity:1" fill="#d9e9da" d="M 708.5,529.5 C 707.244,529.539 706.244,529.039 705.5,528C 706.998,527.415 707.998,527.915 708.5,529.5 Z"/></g>
<g><path style="opacity:1" fill="#d8e8d9" d="M 364.5,532.5 C 362.167,531.833 359.833,531.167 357.5,530.5C 362.821,531.021 367.821,530.021 372.5,527.5C 373.696,527.846 373.696,528.346 372.5,529C 369.924,530.456 367.258,531.623 364.5,532.5 Z"/></g>
<g><path style="opacity:1" fill="#d0e1d2" d="M 708.5,529.5 C 712.768,530.373 717.102,530.706 721.5,530.5C 718.833,531.167 716.167,531.833 713.5,532.5C 711.326,532.25 709.659,531.25 708.5,529.5 Z"/></g>
<g><path style="opacity:1" fill="#b6c9ba" d="M 563.5,531.5 C 569.133,531.05 574.466,532.05 579.5,534.5C 571.903,536.953 564.236,537.12 556.5,535C 558.713,533.384 561.047,532.217 563.5,531.5 Z"/></g>
<g><path style="opacity:1" fill="#d2e2d4" d="M 560.5,541.5 C 558.265,541.205 556.265,541.539 554.5,542.5C 553.711,542.217 553.044,541.717 552.5,541C 555.367,540.199 558.034,540.366 560.5,541.5 Z"/></g>
<g><path style="opacity:1" fill="#adc1b2" d="M 554.5,542.5 C 556.265,541.539 558.265,541.205 560.5,541.5C 566.829,541.1 573.162,540.767 579.5,540.5C 579.5,550.833 579.5,561.167 579.5,571.5C 577.533,571.739 575.699,571.406 574,570.5C 568.838,560.182 562.338,550.849 554.5,542.5 Z"/></g>
<g><path style="opacity:1" fill="#c0d3c4" d="M 507.5,541.5 C 507.174,550.017 507.507,558.35 508.5,566.5C 508.217,567.289 507.717,567.956 507,568.5C 506.176,559.324 506.343,550.324 507.5,541.5 Z"/></g>
<g><path style="opacity:1" fill="#adc1b2" d="M 507.5,541.5 C 513.842,541.334 520.175,541.5 526.5,542C 519.51,549.483 513.51,557.649 508.5,566.5C 507.507,558.35 507.174,550.017 507.5,541.5 Z"/></g>
<g><path style="opacity:1" fill="#aec2b3" d="M 547.5,544.5 C 555.963,551.965 562.963,560.632 568.5,570.5C 558.121,572.391 550.954,568.391 547,558.5C 546.283,553.78 546.45,549.114 547.5,544.5 Z"/></g>
<g><path style="opacity:1" fill="#aec2b3" d="M 530.5,545.5 C 530.323,554.245 532.323,562.578 536.5,570.5C 528.167,571.833 519.833,571.833 511.5,570.5C 516.706,561.296 523.04,552.963 530.5,545.5 Z"/></g>
<g><path style="opacity:1" fill="#cddecf" d="M 468.5,580.5 C 470.416,581.665 471.249,583.332 471,585.5C 469.628,584.09 468.795,582.423 468.5,580.5 Z"/></g>
<g><path style="opacity:1" fill="#e9f8e9" d="M 439.5,632.5 C 451.037,631.686 460.537,635.686 468,644.5C 478.211,657.252 484.878,671.585 488,687.5C 484.732,681.114 482.065,674.448 480,667.5C 475.762,658.189 469.928,650.022 462.5,643C 453.235,635.372 443.568,634.705 433.5,641C 425.058,648.721 418.724,657.887 414.5,668.5C 412.955,669.452 411.288,669.785 409.5,669.5C 413.621,652.381 423.621,640.047 439.5,632.5 Z"/></g>
<g><path style="opacity:1" fill="#eaf8e9" d="M 596.5,674.5 C 595.833,674.5 595.5,674.167 595.5,673.5C 600.035,657.476 609.035,644.643 622.5,635C 632.034,631.079 641.034,632.079 649.5,638C 658.623,645.953 665.623,655.453 670.5,666.5C 668.74,669.926 666.574,670.259 664,667.5C 660.381,657.756 654.881,649.256 647.5,642C 638.924,635.576 629.924,634.909 620.5,640C 609.167,649.161 601.167,660.661 596.5,674.5 Z"/></g>
<g><path style="opacity:1" fill="#d3e4d5" d="M 595.5,673.5 C 595.5,674.167 595.833,674.5 596.5,674.5C 595.681,678.458 594.181,682.125 592,685.5C 592.857,681.406 594.023,677.406 595.5,673.5 Z"/></g>
<g><path style="opacity:1" fill="#d4e4d5" d="M 623.5,694.5 C 623.841,691.484 625.007,688.818 627,686.5C 626.671,689.495 625.504,692.162 623.5,694.5 Z"/></g>
<g><path style="opacity:1" fill="#e4f3e4" d="M 518.5,675.5 C 518.216,677.415 518.549,679.081 519.5,680.5C 516.285,692.642 511.785,704.308 506,715.5C 505.346,716.696 504.846,716.696 504.5,715.5C 510.594,702.547 515.26,689.213 518.5,675.5 Z"/></g>
<g><path style="opacity:1" fill="#e2f1e2" d="M 562.5,679.5 C 566.699,695.411 572.699,710.744 580.5,725.5C 571.744,712.314 565.411,697.981 561.5,682.5C 562.404,681.791 562.737,680.791 562.5,679.5 Z"/></g>
<g><path style="opacity:1" fill="#d8e8da" d="M 458.5,704.5 C 457.833,707.167 457.167,709.833 456.5,712.5C 456.632,705.715 456.132,699.048 455,692.5C 456.881,696.307 458.047,700.307 458.5,704.5 Z"/></g>
<g><path style="opacity:1" fill="#d9e9da" d="M 502.5,718.5 C 502.973,720.97 502.139,723.304 500,725.5C 500.22,723.037 501.054,720.704 502.5,718.5 Z"/></g>
<g><path style="opacity:1" fill="#d9e9da" d="M 580.5,725.5 C 582.085,726.002 582.585,727.002 582,728.5C 580.961,727.756 580.461,726.756 580.5,725.5 Z"/></g>
<g><path style="opacity:1" fill="#d5e5d6" d="M 497.5,727.5 C 498.713,728.497 498.546,729.497 497,730.5C 496.53,729.423 496.697,728.423 497.5,727.5 Z"/></g>
<g><path style="opacity:1" fill="#d5e5d6" d="M 585.5,733.5 C 583.915,732.998 583.415,731.998 584,730.5C 585.039,731.244 585.539,732.244 585.5,733.5 Z"/></g>
<g><path style="opacity:1" fill="#d4e4d5" d="M 585.5,733.5 C 586.906,733.973 587.573,734.973 587.5,736.5C 586.094,736.027 585.427,735.027 585.5,733.5 Z"/></g>
<g><path style="opacity:1" fill="#d1e2d3" d="M 587.5,736.5 C 589.085,737.002 589.585,738.002 589,739.5C 587.961,738.756 587.461,737.756 587.5,736.5 Z"/></g>
</svg>
